<?xml version="1.0" standalone="no"?>
<!DOCTYPE svg PUBLIC "-//W3C//DTD SVG 20010904//EN"
 "http://www.w3.org/TR/2001/REC-SVG-20010904/DTD/svg10.dtd">
<svg version="1.0" xmlns="http://www.w3.org/2000/svg"
 width="512.000000pt" height="512.000000pt" viewBox="0 0 512.000000 512.000000"
 preserveAspectRatio="xMidYMid meet">

<g transform="translate(0.000000,512.000000) scale(0.100000,-0.100000)"
fill="#000000" stroke="none">
<path d="M2630 5111 c-14 -5 -43 -17 -65 -29 -25 -13 -482 -464 -1211 -1194
-1287 -1288 -1209 -1203 -1209 -1328 0 -125 -78 -40 1209 -1328 884 -886 1183
-1180 1220 -1199 185 -95 408 39 409 247 1 127 63 58 -1101 1223 l-1057 1057
1057 1058 c1164 1164 1102 1095 1101 1222 0 83 -28 143 -93 204 -68 64 -177
92 -260 67z"/>
<path d="M4609 5106 c-20 -7 -52 -22 -70 -34 -19 -12 -557 -544 -1196 -1184
-1279 -1279 -1206 -1200 -1207 -1329 0 -127 -67 -54 1221 -1341 842 -840 1180
-1172 1213 -1188 139 -70 311 -7 382 138 32 66 31 168 -1 237 -19 40 -225 251
-1077 1105 l-1053 1055 1055 1055 c772 773 1060 1067 1076 1100 30 61 30 166
1 232 -57 126 -219 199 -344 154z"/>
</g>
</svg>
