<?xml version="1.0" standalone="no"?>
<!DOCTYPE svg PUBLIC "-//W3C//DTD SVG 20010904//EN"
 "http://www.w3.org/TR/2001/REC-SVG-20010904/DTD/svg10.dtd">
<svg version="1.0" xmlns="http://www.w3.org/2000/svg"
 width="512.000000pt" height="512.000000pt" viewBox="0 0 512.000000 512.000000"
 preserveAspectRatio="xMidYMid meet">

<g transform="translate(0.000000,512.000000) scale(0.100000,-0.100000)"
fill="#000000" stroke="none">
<path d="M849 4371 l-24 -19 0 -495 c0 -473 1 -496 19 -516 19 -21 24 -21 516
-21 469 0 498 1 513 18 15 17 17 67 17 520 l0 501 -22 15 c-20 14 -85 16 -509
16 -464 0 -488 -1 -510 -19z m921 -521 l0 -400 -405 0 -405 0 0 400 0 400 405
0 405 0 0 -400z"/>
<path d="M1403 3918 l-113 -113 -58 58 c-64 64 -95 72 -130 34 -40 -42 -30
-64 71 -159 128 -122 117 -124 295 55 149 151 159 168 126 215 -10 15 -25 22
-47 22 -28 0 -48 -16 -144 -112z"/>
<path d="M2150 4090 c-27 -27 -26 -75 2 -94 20 -14 137 -16 1064 -16 1022 0
1041 0 1059 20 22 25 22 65 0 90 -18 20 -37 20 -1062 20 -1030 0 -1043 0
-1063 -20z"/>
<path d="M2150 3700 c-11 -11 -20 -31 -20 -45 0 -14 9 -34 20 -45 20 -20 33
-20 923 -20 l904 0 21 23 c27 29 28 61 2 87 -20 20 -33 20 -925 20 -892 0
-905 0 -925 -20z"/>
<path d="M849 3081 l-24 -19 0 -495 c0 -473 1 -496 19 -516 19 -21 24 -21 516
-21 469 0 498 1 513 18 15 17 17 67 17 515 0 484 -1 498 -20 517 -19 19 -33
20 -509 20 -466 0 -490 -1 -512 -19z m921 -521 l0 -400 -405 0 -405 0 0 400 0
400 405 0 405 0 0 -400z"/>
<path d="M1403 2628 l-113 -113 -58 58 c-66 66 -98 73 -131 31 -36 -45 -28
-63 72 -156 128 -122 117 -124 295 55 149 151 159 168 126 215 -10 15 -25 22
-47 22 -28 0 -48 -16 -144 -112z"/>
<path d="M2150 2800 c-11 -11 -20 -31 -20 -45 0 -14 9 -34 20 -45 20 -20 33
-20 1063 -20 1025 0 1044 0 1062 20 22 25 22 65 0 90 -18 20 -37 20 -1062 20
-1030 0 -1043 0 -1063 -20z"/>
<path d="M2150 2410 c-27 -27 -26 -75 2 -94 20 -14 124 -16 923 -16 l902 0 21
23 c27 29 28 61 2 87 -20 20 -33 20 -925 20 -892 0 -905 0 -925 -20z"/>
<path d="M844 1779 c-18 -20 -19 -43 -19 -516 l0 -495 24 -19 c22 -18 46 -19
512 -19 476 0 490 1 509 20 19 19 20 33 20 518 0 471 -1 500 -18 515 -17 15
-67 17 -514 17 -490 0 -495 0 -514 -21z m926 -509 l0 -400 -405 0 -405 0 0
400 0 400 405 0 405 0 0 -400z"/>
<path d="M1520 1443 c-8 -3 -63 -53 -122 -111 l-108 -106 -53 52 c-49 48 -58
53 -93 50 -51 -4 -74 -40 -55 -84 21 -47 177 -184 208 -184 22 0 57 30 170
143 123 123 143 147 143 174 0 47 -47 81 -90 66z"/>
<path d="M2150 1510 c-11 -11 -20 -31 -20 -45 0 -14 9 -34 20 -45 20 -20 33
-20 1063 -20 1025 0 1044 0 1062 20 22 25 22 65 0 90 -18 20 -37 20 -1062 20
-1030 0 -1043 0 -1063 -20z"/>
<path d="M2150 1120 c-11 -11 -20 -31 -20 -45 0 -14 9 -34 20 -45 20 -20 33
-20 925 -20 l904 0 21 22 c25 28 26 62 0 88 -20 20 -33 20 -925 20 -892 0
-905 0 -925 -20z"/>
</g>
</svg>
