<?xml version="1.0" standalone="no"?>
<!DOCTYPE svg PUBLIC "-//W3C//DTD SVG 20010904//EN"
 "http://www.w3.org/TR/2001/REC-SVG-20010904/DTD/svg10.dtd">
<svg version="1.0" xmlns="http://www.w3.org/2000/svg"
 width="512.000000pt" height="512.000000pt" viewBox="0 0 512.000000 512.000000"
 preserveAspectRatio="xMidYMid meet">

<g transform="translate(0.000000,512.000000) scale(0.100000,-0.100000)"
fill="#000000" stroke="none">
<path d="M95 4676 c-41 -18 -83 -69 -90 -109 -3 -18 -5 -166 -3 -329 3 -283 4
-298 24 -325 73 -98 195 -98 268 0 20 26 21 44 24 243 l3 214 720 0 719 0 0
-1815 0 -1815 -184 0 c-173 0 -185 -1 -216 -22 -48 -33 -72 -70 -77 -120 -7
-58 23 -118 74 -149 l38 -24 525 0 525 0 38 24 c51 31 81 91 74 149 -5 50 -29
87 -77 120 -31 21 -43 22 -216 22 l-184 0 0 1815 0 1815 719 0 720 0 3 -214
c3 -199 4 -217 24 -243 73 -98 195 -98 268 0 20 28 21 39 21 352 0 311 -1 325
-21 351 -11 15 -33 37 -48 48 l-27 21 -1807 2 c-1487 2 -1812 0 -1837 -11z"/>
<path d="M3090 2759 c-32 -13 -68 -47 -86 -81 -22 -42 -20 -467 2 -514 24 -50
68 -77 133 -82 70 -5 115 22 149 88 19 38 22 60 22 162 l0 118 290 0 290 0 0
-855 0 -855 -71 0 c-123 0 -180 -46 -187 -149 -5 -70 22 -115 88 -149 44 -22
49 -23 345 -20 295 3 301 3 338 27 99 61 101 192 3 265 -21 16 -48 22 -109 26
l-82 5 -3 853 -2 852 294 0 294 0 4 -109 c2 -92 6 -114 24 -137 39 -53 71 -69
134 -69 63 0 95 16 134 69 20 26 21 41 21 246 0 241 -1 243 -69 294 -27 21
-35 21 -979 23 -619 1 -961 -2 -977 -8z"/>
</g>
</svg>
