<?xml version="1.0" standalone="no"?>
<!DOCTYPE svg PUBLIC "-//W3C//DTD SVG 20010904//EN"
 "http://www.w3.org/TR/2001/REC-SVG-20010904/DTD/svg10.dtd">
<svg version="1.0" xmlns="http://www.w3.org/2000/svg"
 width="512.000000pt" height="512.000000pt" viewBox="0 0 512.000000 512.000000"
 preserveAspectRatio="xMidYMid meet">

<g transform="translate(0.000000,512.000000) scale(0.100000,-0.100000)"
fill="#000000" stroke="none">
<path d="M2495 4786 c-41 -18 -83 -69 -90 -109 -3 -18 -4 -982 -3 -2144 l3
-2112 21 -27 c39 -53 71 -69 134 -69 63 0 95 16 134 69 l21 27 0 2139 0 2139
-21 27 c-11 15 -32 37 -46 47 -33 25 -113 32 -153 13z"/>
<path d="M1215 4146 c-41 -18 -83 -69 -90 -109 -3 -18 -4 -730 -3 -1584 3
-1549 3 -1552 24 -1579 39 -53 71 -69 134 -69 63 0 95 16 134 69 l21 27 0
1579 0 1579 -21 27 c-11 15 -32 37 -46 47 -33 25 -113 32 -153 13z"/>
<path d="M3775 4146 c-41 -18 -83 -69 -90 -109 -3 -18 -4 -730 -3 -1584 3
-1549 3 -1552 24 -1579 39 -53 71 -69 134 -69 63 0 95 16 134 69 l21 27 0
1579 0 1579 -21 27 c-11 15 -32 37 -46 47 -33 25 -113 32 -153 13z"/>
<path d="M1855 3666 c-41 -18 -83 -69 -90 -109 -3 -18 -4 -514 -3 -1104 3
-1064 3 -1072 24 -1099 39 -53 71 -69 134 -69 63 0 95 16 134 69 21 27 21 32
21 1126 0 1094 0 1099 -21 1126 -11 15 -32 37 -46 47 -33 25 -113 32 -153 13z"/>
<path d="M3135 3666 c-41 -18 -83 -69 -90 -109 -3 -18 -4 -514 -3 -1104 3
-1064 3 -1072 24 -1099 39 -53 71 -69 134 -69 63 0 95 16 134 69 21 27 21 32
21 1126 0 1094 0 1099 -21 1126 -11 15 -32 37 -46 47 -33 25 -113 32 -153 13z"/>
<path d="M575 3186 c-41 -18 -83 -69 -90 -109 -3 -18 -5 -298 -3 -624 3 -580
3 -592 24 -619 39 -53 71 -69 134 -69 63 0 95 16 134 69 21 27 21 37 21 646 0
609 0 619 -21 646 -11 15 -32 37 -46 47 -33 25 -113 32 -153 13z"/>
<path d="M4415 3186 c-41 -18 -83 -69 -90 -109 -3 -18 -5 -298 -3 -624 3 -580
3 -592 24 -619 39 -53 71 -69 134 -69 63 0 95 16 134 69 21 27 21 37 21 646 0
609 0 619 -21 646 -11 15 -32 37 -46 47 -33 25 -113 32 -153 13z"/>
</g>
</svg>
